<?xml version="1.0" encoding="utf-8"?>
<!-- Generator: Adobe Illustrator 23.0.3, SVG Export Plug-In . SVG Version: 6.00 Build 0)  -->
<svg version="1.1" id="Camada_1" xmlns="http://www.w3.org/2000/svg" xmlns:xlink="http://www.w3.org/1999/xlink" x="0px" y="0px"
	 viewBox="0 0 50 50" style="enable-background:new 0 0 50 50;" xml:space="preserve">
<style type="text/css">
	.st0{fill:#51A9C2;}
	.st1{fill:#1D5BA2;}
	.st2{fill:#BFC928;}
</style>
<g>
	<path class="st2" d="M42.1,7.9C37.5,3.3,31.5,0.8,25,0.8S12.5,3.3,7.9,7.9S0.8,18.5,0.8,25s2.5,12.5,7.1,17.1s10.6,7.1,17.1,7.1
		s12.5-2.5,17.1-7.1s7.1-10.6,7.1-17.1S46.7,12.5,42.1,7.9z M45.4,25c0,11.2-9.1,20.4-20.4,20.4S4.6,36.2,4.6,25S13.8,4.6,25,4.6
		S45.4,13.8,45.4,25z"/>
	<path class="st2" d="M26.3,26.1l7.9-7.1c0.6-0.5,0.6-1.3,0.1-1.9S33,16.5,32.4,17l-8.9,8c-0.3,0.3-0.5,0.6-0.5,1
		c0,0.3,0.1,0.7,0.3,1l4,4.5c0.5,0.6,1.3,0.6,1.9,0.1c0.6-0.5,0.6-1.3,0.1-1.9L26.3,26.1z"/>
	<path class="st2" d="M25,9.8c0.7,0,1.4-0.6,1.3-1.3c0-0.7-0.6-1.3-1.3-1.3c-0.7,0-1.4,0.6-1.3,1.3C23.7,9.2,24.2,9.8,25,9.8z"/>
	<path class="st2" d="M16.7,12c0.7,0,1.4-0.6,1.3-1.3c0-0.7-0.6-1.3-1.3-1.3c-0.7,0-1.4,0.6-1.3,1.3C15.4,11.4,16,12,16.7,12z"/>
	<path class="st2" d="M10.7,18.1c0.7,0,1.4-0.6,1.3-1.3c0-0.7-0.6-1.3-1.3-1.3s-1.4,0.6-1.3,1.3C9.4,17.5,9.9,18.1,10.7,18.1z"/>
	<path class="st2" d="M9.8,25c0-0.7-0.6-1.3-1.3-1.3S7.1,24.3,7.2,25c0,0.7,0.6,1.3,1.3,1.3C9.2,26.4,9.8,25.7,9.8,25z"/>
	<path class="st2" d="M10.7,32c-0.7,0-1.4,0.6-1.3,1.3c0,0.7,0.6,1.3,1.3,1.3s1.4-0.6,1.3-1.3C12,32.6,11.5,32,10.7,32z"/>
	<path class="st2" d="M16.8,38c-0.7,0-1.4,0.6-1.3,1.3c0,0.7,0.6,1.3,1.3,1.3s1.4-0.6,1.3-1.3C18.1,38.6,17.5,38,16.8,38z"/>
	<path class="st2" d="M25,40.2c-0.7,0-1.4,0.6-1.3,1.3c0,0.7,0.6,1.3,1.3,1.3c0.7,0,1.4-0.6,1.3-1.3C26.4,40.8,25.8,40.2,25,40.2z"
		/>
	<path class="st2" d="M33.3,38c-0.7,0-1.4,0.6-1.3,1.3c0,0.7,0.6,1.3,1.3,1.3s1.4-0.6,1.3-1.3C34.6,38.6,34.1,38,33.3,38z"/>
	<path class="st2" d="M39.4,31.9c-0.7,0-1.4,0.6-1.3,1.3c0,0.7,0.6,1.3,1.3,1.3s1.4-0.6,1.3-1.3C40.7,32.5,40.1,31.9,39.4,31.9z"/>
	<path class="st2" d="M40.2,25c0,0.7,0.6,1.3,1.3,1.3s1.4-0.6,1.3-1.3c0-0.7-0.6-1.3-1.3-1.3C40.9,23.6,40.2,24.3,40.2,25z"/>
	<path class="st2" d="M38,16.7c0,0.7,0.6,1.3,1.3,1.3s1.4-0.6,1.3-1.3c0-0.7-0.6-1.3-1.3-1.3C38.6,15.4,38,16,38,16.7z"/>
	<path class="st2" d="M33.3,12c0.7,0,1.4-0.6,1.3-1.3c0-0.7-0.6-1.3-1.3-1.3S31.9,10,32,10.7C32,11.4,32.5,12,33.3,12z"/>
</g>
</svg>
