<svg xmlns="http://www.w3.org/2000/svg" width="30.036" height="68.021" viewBox="0 0 30.036 68.021"><defs><style>.a{fill:#c9d300;}</style></defs><g transform="translate(-676.98 -1348.987)"><path class="a" d="M695.177,1416.736c-.6-.4-1.21-.782-1.823-1.151a64.7,64.7,0,0,0-15.33-5.627c-1.8-.423-1.092-3.108.767-2.775.141.025.275.058.415.084h0l.022.005a49.624,49.624,0,0,1,11.06,3.362c-13.715-20.34-3.976-45.371,15.429-61.448.776-.643,1.769.436,1.05,1.082-18.265,16.417-27.372,41.9-11.714,61.479q1.155-7.415,2.311-14.83c.287-1.841,3.507-1.576,3.336.282l-1.594,17.332a1.379,1.379,0,0,1-1.314,1.236A1.763,1.763,0,0,1,695.177,1416.736Z"/></g></svg>