<svg id="Camada_1" data-name="Camada 1" xmlns="http://www.w3.org/2000/svg" viewBox="0 0 50 50"><defs><style>.cls-1{fill:#bfc928;}</style></defs><title>ICONES-LP</title><path class="cls-1" d="M32.2,11.7a1,1,0,0,0,1-1,1.1,1.1,0,0,0-.3-.7l-.7-.2-.6.2a1.1,1.1,0,0,0-.3.7.9.9,0,0,0,.3.7A.7.7,0,0,0,32.2,11.7Z"/><path class="cls-1" d="M17.7,24.4a1.1,1.1,0,0,0-.7.3,1.4,1.4,0,0,0-.2.6,1.4,1.4,0,0,0,.2.7,1.1,1.1,0,0,0,.7.3,1,1,0,0,0,1-1,.9.9,0,0,0-.3-.6A.9.9,0,0,0,17.7,24.4Z"/><path class="cls-1" d="M42.3.7a7,7,0,0,0-7,7,7,7,0,0,0,7,7.1,7.1,7.1,0,0,0,7.1-7.1A7,7,0,0,0,42.3.7Zm0,12.8a5.8,5.8,0,1,1,5.8-5.8A5.8,5.8,0,0,1,42.3,13.5Z"/><path class="cls-1" d="M32.8,31.4a9.1,9.1,0,0,0-5.6,2L20.7,27a.9.9,0,1,0-1.3,1.3l6.4,6.5a8.9,8.9,0,0,0,7,14.5,9,9,0,0,0,0-17.9Zm0,15.9a6.9,6.9,0,1,1,6.9-6.9A6.9,6.9,0,0,1,32.8,47.3Z"/><path class="cls-1" d="M29.1,12.8a1.1,1.1,0,0,0,.8-1.4,1.1,1.1,0,0,0-1.4-.8L18,13.4A9,9,0,0,0,9.6,7.8a9.2,9.2,0,0,0,0,18.4A9.2,9.2,0,0,0,18.7,17a5.7,5.7,0,0,0-.1-1.3ZM16.7,17A7.1,7.1,0,1,1,9.6,9.9,7.1,7.1,0,0,1,16.7,17Z"/><path class="cls-1" d="M10.2,16c-1.2-.5-1.3-.7-1.3-1s0-.6.9-.6a3.2,3.2,0,0,1,1.4.3l.5.4.7-1.9L12,13a3.4,3.4,0,0,0-1.4-.5V11.2H8.7v1.4a2.7,2.7,0,0,0-2,2.6c0,1.5,1.3,2.2,2.5,2.7s1.2.7,1.2,1.1-.4.8-1.1.8a2.4,2.4,0,0,1-1.6-.5L7.1,19l-.6,1.9.3.2a4.3,4.3,0,0,0,1.8.6v1.4h1.9V21.6A2.8,2.8,0,0,0,12.6,19C12.6,17.2,11.3,16.5,10.2,16Z"/><path class="cls-1" d="M33.4,39.5c-1-.4-1.1-.6-1.1-.8s0-.5.7-.5a2.7,2.7,0,0,1,1.2.3l.4.2.5-1.5h-.3a2.1,2.1,0,0,0-1.1-.4V35.6H32.2v1.1a2.3,2.3,0,0,0-1.7,2.1c0,1.3,1.1,1.9,2.1,2.2s.9.6.9.9a.7.7,0,0,1-.8.7,3.3,3.3,0,0,1-1.4-.4l-.4-.3-.5,1.5.2.2a4.4,4.4,0,0,0,1.5.5v1.1h1.5V44a2.1,2.1,0,0,0,1.7-2.1A2.6,2.6,0,0,0,33.4,39.5Z"/><path class="cls-1" d="M42.8,7c-.8-.3-.9-.5-.9-.7s0-.4.6-.4l.9.2.4.2.4-1.2H44l-1-.4V3.8H41.8v.9a1.7,1.7,0,0,0-1.3,1.7c0,1,.8,1.5,1.6,1.8s.8.5.8.8-.3.5-.7.5a2,2,0,0,1-1.1-.3l-.3-.3-.5,1.3h.2a3.1,3.1,0,0,0,1.2.5v.9H43v-1a1.7,1.7,0,0,0,1.3-1.8A2.1,2.1,0,0,0,42.8,7Z"/></svg>