<svg id="Camada_1" data-name="Camada 1" xmlns="http://www.w3.org/2000/svg" viewBox="0 0 50 50"><defs><style>.cls-1{fill:#bfc928;}</style></defs><title>ICONES-LP</title><path id="Caminho_4077" data-name="Caminho 4077" class="cls-1" d="M6.5,47c3,1.6,7,2.3,12.8,2.3a31.8,31.8,0,0,0,11-1.5,4.4,4.4,0,0,0,3.2,1.5H45a4.2,4.2,0,0,0,3.2-7.1,4.2,4.2,0,0,0,0-5.7,4.2,4.2,0,0,0,0-5.7,4.3,4.3,0,0,0-.3-6A4.4,4.4,0,0,0,45,23.7H33.1a18.3,18.3,0,0,0-4.9-4.3,4.3,4.3,0,0,0-.3-6l-1.1-.7,2.4-7.3a1.4,1.4,0,0,0-.9-1.8h-5a4.2,4.2,0,0,0-8,0H10.8A1.5,1.5,0,0,0,9.3,5c0,.1.1.3.1.4l2.4,7.3a4.2,4.2,0,0,0-2.1,5.7,6.1,6.1,0,0,0,.7,1A20.4,20.4,0,0,0,.7,36.5c0,4.9,1.9,8.4,5.8,10.5Zm40-13.4A1.5,1.5,0,0,1,45,35.1H33.5a1.4,1.4,0,0,1-1.3-1.5,1.3,1.3,0,0,1,1.3-1.4H45a1.5,1.5,0,0,1,1.5,1.4Zm0,5.7A1.5,1.5,0,0,1,45,40.8H33.5a1.4,1.4,0,0,1-1.3-1.5,1.3,1.3,0,0,1,1.3-1.4H45A1.5,1.5,0,0,1,46.5,39.3ZM45,46.5H33.5A1.4,1.4,0,0,1,32.2,45a1.3,1.3,0,0,1,1.3-1.4H45a1.5,1.5,0,0,1,1.4,1.5A1.5,1.5,0,0,1,45,46.5Zm1.5-18.6A1.5,1.5,0,0,1,45,29.4H33.5a1.4,1.4,0,0,1-1.3-1.5,1.3,1.3,0,0,1,1.3-1.4H45A1.5,1.5,0,0,1,46.5,27.9ZM25,18H13.6a1.5,1.5,0,0,1-1.4-1.5,1.4,1.4,0,0,1,1.4-1.4H25a1.4,1.4,0,0,1,1.4,1.4A1.5,1.5,0,0,1,25,18ZM16.5,6.4A1.5,1.5,0,0,0,17.9,5h0a1.5,1.5,0,0,1,1.4-1.5,1.4,1.4,0,0,1,1.4,1.4h0V7.8a1.5,1.5,0,0,0,1.5,1.4,1.4,1.4,0,0,0,1.4-1.4V6.4h2.3L24,12.3H14.6L12.7,6.4ZM13.9,20.8H24.7A16,16,0,0,1,30.5,25a4.2,4.2,0,0,0-.1,5.8,4.2,4.2,0,0,0,0,5.7,4.2,4.2,0,0,0,0,5.7A4.3,4.3,0,0,0,29.3,45h0a30.6,30.6,0,0,1-10,1.4c-5.3,0-8.9-.7-11.5-2s-4.3-4.1-4.3-8A17.3,17.3,0,0,1,13.9,20.8Z"/><path class="cls-1" d="M20.4,31.7c-2-.9-2.2-1.3-2.2-1.7s.1-1.1,1.5-1.1a4.6,4.6,0,0,1,2.3.6l.8.5L24,27l-.6-.3a5.7,5.7,0,0,0-2.4-.8V23.7H18V26a4.4,4.4,0,0,0-3.3,4.2c0,2.6,2.1,3.7,4.1,4.5s1.9,1.2,1.9,1.8S20,37.8,19,37.8a5,5,0,0,1-2.7-.8l-.9-.6-1.1,3.1.6.4a7.7,7.7,0,0,0,2.9,1v2.2h3V40.8a4.8,4.8,0,0,0,3.5-4.4C24.3,33.6,22.2,32.4,20.4,31.7Z"/></svg>